<svg width="16" height="16" viewBox="0 0 16 16" fill="none" xmlns="http://www.w3.org/2000/svg">
<g clip-path="url(#clip0_2009_730)">
<path d="M11.88 0.907083H7.61333C7.00889 0.907083 6.45778 1.0493 5.96 1.33375C5.46222 1.61819 5.06222 2.01819 4.76 2.53375C4.45778 3.0493 4.30667 3.60931 4.30667 4.21375H3.34667C2.70667 4.21375 2.15556 4.44486 1.69333 4.90708C1.23111 5.36931 1 5.92042 1 6.56042V8.00042C1 8.14264 1.04444 8.25819 1.13333 8.34708C1.22222 8.43597 1.33778 8.48042 1.48 8.48042H8.09333C8.23556 8.48042 8.35111 8.43597 8.44 8.34708C8.52889 8.25819 8.57333 8.14264 8.57333 8.00042V6.56042C8.57333 5.92042 8.34222 5.36931 7.88 4.90708C7.41778 4.44486 6.86667 4.21375 6.22667 4.21375H5.26667C5.26667 3.57375 5.49778 3.02264 5.96 2.56042C6.42222 2.09819 6.97333 1.84931 7.61333 1.81375H11.88C12.52 1.84931 13.0711 2.09819 13.5333 2.56042C13.9956 3.02264 14.2444 3.57375 14.28 4.21375V14.6137H15.1867V4.21375C15.1867 3.60931 15.0444 3.0493 14.76 2.53375C14.4756 2.01819 14.0756 1.61819 13.56 1.33375C13.0444 1.0493 12.4844 0.907083 11.88 0.907083ZM6.17333 5.17375C6.56444 5.17375 6.90222 5.30708 7.18667 5.57375C7.47111 5.84042 7.61333 6.16931 7.61333 6.56042V7.52042H1.90667V6.56042C1.90667 6.16931 2.04889 5.84042 2.33333 5.57375C2.61778 5.30708 2.95556 5.17375 3.34667 5.17375H6.17333ZM1.48 9.92042H2.38667V13.2271H1.48V9.92042ZM3.34667 9.92042H4.30667V11.3071H3.34667V9.92042ZM3.34667 12.7471H4.30667V14.6137H3.34667V12.7471ZM5.26667 9.92042H6.17333V12.2671H5.26667V9.92042ZM5.26667 13.2271H6.17333V14.1337H5.26667V13.2271ZM7.13333 9.92042H8.09333V11.3071H7.13333V9.92042ZM7.13333 12.2671H8.09333V15.0938H7.13333V12.2671Z" fill="#181A20"/>
</g>
<defs>
<clipPath id="clip0_2009_730">
<rect width="16" height="16" fill="white" transform="matrix(1 0 0 -1 0 16)"/>
</clipPath>
</defs>
</svg>
