<svg width="16" height="16" viewBox="0 0 16 16" fill="none" xmlns="http://www.w3.org/2000/svg">
<path d="M14.0559 8.97171L13.961 8.9243V4.79985C13.961 4.23096 13.7556 3.73319 13.3448 3.30652C12.9339 2.87985 12.444 2.66652 11.8751 2.66652H4.28994C3.72105 2.66652 3.23117 2.87985 2.82031 3.30652C2.40944 3.73319 2.20401 4.23096 2.20401 4.79985V8.9243L2.1566 8.97171C1.90376 9.22455 1.77734 9.52479 1.77734 9.87245V13.2384C1.77734 13.3332 1.81685 13.428 1.89586 13.5228C1.97487 13.6176 2.07759 13.665 2.20401 13.665H4.28994C4.44796 13.665 4.55858 13.6018 4.62179 13.4754L5.38031 12.385H10.8322L11.5433 13.4754C11.6065 13.6018 11.7171 13.665 11.8751 13.665H14.0085C14.1033 13.665 14.1902 13.6176 14.2692 13.5228C14.3482 13.428 14.3877 13.3332 14.3877 13.2384V9.87245C14.3877 9.52479 14.2771 9.22455 14.0559 8.97171ZM4.28994 3.51985H11.8751C12.2228 3.51985 12.523 3.64627 12.7759 3.89911C13.0287 4.15195 13.1551 4.4522 13.1551 4.79985V7.31245C12.9655 7.05961 12.7206 6.85417 12.4203 6.69615C12.1201 6.53813 11.7961 6.47492 11.4485 6.50652H4.7166C4.11611 6.47492 3.62623 6.66454 3.24697 7.07541L3.00994 7.35985V4.79985C3.00994 4.4522 3.13636 4.15195 3.3892 3.89911C3.64204 3.64627 3.94228 3.51985 4.28994 3.51985ZM12.7285 8.59245H3.4366C3.4366 8.24479 3.56302 7.94454 3.81586 7.69171C4.0687 7.43887 4.36895 7.31245 4.7166 7.31245H11.4485C11.7961 7.31245 12.0964 7.43887 12.3492 7.69171C12.602 7.94454 12.7285 8.24479 12.7285 8.59245ZM13.5818 12.8117H12.1122L11.401 11.7213C11.3062 11.5949 11.1798 11.5317 11.0218 11.5317H5.14327C4.98524 11.5317 4.85883 11.5949 4.76401 11.7213L4.0529 12.8117H2.58327V9.87245C2.58327 9.74603 2.63068 9.64331 2.72549 9.5643C2.82031 9.48529 2.91512 9.44578 3.00994 9.44578H13.1551C13.2499 9.44578 13.3448 9.48529 13.4396 9.5643C13.5344 9.64331 13.5818 9.74603 13.5818 9.87245V12.8117Z" fill="#181A20"/>
</svg>
