<svg width="132" height="50" viewBox="0 0 132 50" fill="none" xmlns="http://www.w3.org/2000/svg">
<path d="M78.4013 24.2139C79.2484 24.2139 80.1167 24.2203 81.0061 24.2332C81.9096 24.2332 82.792 24.2526 83.6532 24.2913C84.5144 24.317 85.2979 24.3751 86.0038 24.4654L85.792 27.4253H80.4343C80.1661 27.4253 79.9543 27.4898 79.799 27.6188C79.6437 27.7477 79.5661 27.9154 79.5661 28.1218V33.8095C79.5661 34.0158 79.6437 34.1835 79.799 34.3125C79.9543 34.4414 80.1661 34.5059 80.4343 34.5059H85.792L86.0038 37.4659C85.2979 37.5432 84.5144 37.6013 83.6532 37.64C82.792 37.6787 81.9096 37.698 81.0061 37.698C80.1167 37.7109 79.2484 37.7174 78.4013 37.7174C77.399 37.7174 76.5731 37.4401 75.9237 36.8855C75.2884 36.318 74.9707 35.5828 74.9707 34.68V27.2512C74.9707 26.3484 75.2884 25.6197 75.9237 25.0651C76.5731 24.4976 77.399 24.2139 78.4013 24.2139ZM75.3519 29.4179H85.0297V32.2038H75.3519V29.4179Z" fill="black"/>
<path d="M68.8375 24.291C69.2045 24.291 69.5292 24.3877 69.8116 24.5812C70.094 24.7747 70.2845 25.0391 70.3834 25.3744L74.174 37.6397H69.4939L67.2916 28.9534C67.2351 28.7083 67.1857 28.4568 67.1433 28.1989C67.101 27.9281 67.0657 27.6701 67.0374 27.4251H66.4657C66.4374 27.6701 66.4021 27.9281 66.3598 28.1989C66.3174 28.4568 66.268 28.7083 66.2115 28.9534L64.0092 37.6397H59.3291L63.1197 25.3744C63.2186 25.0391 63.4092 24.7747 63.6915 24.5812C63.9739 24.3877 64.2986 24.291 64.6656 24.291H68.8375ZM70.6375 31.8166V34.7572H62.8656V31.8166H70.6375Z" fill="black"/>
<path d="M58.7085 24.291V32.1261C58.7085 33.5448 58.5038 34.6798 58.0944 35.531C57.6991 36.3694 57.0426 36.9755 56.125 37.3495C55.2214 37.7236 54.0073 37.9106 52.4826 37.9106C50.8308 37.9106 49.5108 37.7236 48.5225 37.3495C47.5484 36.9755 46.8425 36.3694 46.4048 35.531C45.9813 34.6798 45.7695 33.5448 45.7695 32.1261V24.291H50.3649V32.1261C50.3649 32.8355 50.4143 33.3836 50.5131 33.7705C50.6261 34.1575 50.8167 34.4283 51.0849 34.5831C51.3673 34.7249 51.7555 34.7959 52.2496 34.7959C52.7437 34.7959 53.1249 34.7249 53.3932 34.5831C53.6614 34.4283 53.8449 34.1575 53.9438 33.7705C54.0567 33.3836 54.1132 32.8355 54.1132 32.1261V24.291H58.7085Z" fill="black"/>
<path d="M126.134 11.2939C126.698 11.2939 127.313 11.3133 127.976 11.352C128.654 11.3907 129.31 11.4423 129.946 11.5068C130.581 11.5583 131.117 11.6293 131.555 11.7196L131.28 14.0798C130.574 14.0798 129.861 14.0798 129.141 14.0798C128.435 14.0798 127.757 14.0798 127.108 14.0798C126.642 14.0798 126.296 14.0862 126.07 14.0991C125.844 14.0991 125.696 14.112 125.625 14.1378C125.555 14.1636 125.52 14.2216 125.52 14.3119C125.52 14.4151 125.597 14.486 125.753 14.5247C125.922 14.5634 126.261 14.6472 126.769 14.7762L129.204 15.3373C130.15 15.5823 130.849 15.9241 131.301 16.3626C131.767 16.7882 132 17.4202 132 18.2585C132 19.071 131.83 19.7094 131.491 20.1737C131.153 20.6381 130.602 20.9669 129.84 21.1604C129.091 21.3539 128.103 21.4506 126.875 21.4506C126.367 21.4506 125.611 21.4248 124.609 21.3732C123.621 21.3345 122.541 21.2249 121.369 21.0443L121.644 18.6841C121.828 18.6841 122.117 18.6841 122.512 18.6841C122.922 18.6841 123.381 18.6841 123.889 18.6841C124.411 18.6841 124.92 18.6841 125.414 18.6841C126.091 18.6841 126.593 18.6841 126.917 18.6841C127.242 18.6712 127.454 18.6454 127.553 18.6067C127.651 18.5551 127.701 18.4842 127.701 18.3939C127.701 18.2778 127.609 18.2005 127.425 18.1618C127.242 18.1102 126.875 18.0134 126.324 17.8716L123.995 17.2912C123.218 17.0848 122.632 16.8333 122.237 16.5367C121.842 16.2272 121.574 15.8725 121.432 15.4727C121.291 15.0729 121.221 14.6215 121.221 14.1185C121.221 13.5252 121.369 13.0222 121.665 12.6095C121.976 12.1839 122.484 11.8614 123.19 11.6422C123.91 11.41 124.891 11.2939 126.134 11.2939Z" fill="black"/>
<path d="M114.429 11.2939C114.993 11.2939 115.607 11.3133 116.271 11.352C116.949 11.3907 117.605 11.4423 118.24 11.5068C118.876 11.5583 119.412 11.6293 119.85 11.7196L119.575 14.0798C118.869 14.0798 118.156 14.0798 117.436 14.0798C116.73 14.0798 116.052 14.0798 115.403 14.0798C114.937 14.0798 114.591 14.0862 114.365 14.0991C114.139 14.0991 113.991 14.112 113.92 14.1378C113.85 14.1636 113.815 14.2216 113.815 14.3119C113.815 14.4151 113.892 14.486 114.047 14.5247C114.217 14.5634 114.556 14.6472 115.064 14.7762L117.499 15.3373C118.445 15.5823 119.144 15.9241 119.596 16.3626C120.062 16.7882 120.295 17.4202 120.295 18.2585C120.295 19.071 120.125 19.7094 119.786 20.1737C119.448 20.6381 118.897 20.9669 118.135 21.1604C117.386 21.3539 116.398 21.4506 115.17 21.4506C114.662 21.4506 113.906 21.4248 112.904 21.3732C111.916 21.3345 110.836 21.2249 109.664 21.0443L109.939 18.6841C110.123 18.6841 110.412 18.6841 110.807 18.6841C111.217 18.6841 111.676 18.6841 112.184 18.6841C112.706 18.6841 113.215 18.6841 113.709 18.6841C114.386 18.6841 114.887 18.6841 115.212 18.6841C115.537 18.6712 115.749 18.6454 115.847 18.6067C115.946 18.5551 115.996 18.4842 115.996 18.3939C115.996 18.2778 115.904 18.2005 115.72 18.1618C115.537 18.1102 115.17 18.0134 114.619 17.8716L112.29 17.2912C111.513 17.0848 110.927 16.8333 110.532 16.5367C110.137 16.2272 109.869 15.8725 109.727 15.4727C109.586 15.0729 109.516 14.6215 109.516 14.1185C109.516 13.5252 109.664 13.0222 109.96 12.6095C110.271 12.1839 110.779 11.8614 111.485 11.6422C112.205 11.41 113.186 11.2939 114.429 11.2939Z" fill="black"/>
<path d="M103.06 11.2939C105.051 11.2939 106.462 11.5841 107.295 12.1645C108.128 12.7449 108.552 13.6026 108.566 14.7375C108.58 15.6403 108.284 16.2917 107.677 16.6915C107.084 17.0913 106.011 17.2912 104.458 17.2912H98.7612V15.3759H103.208C103.688 15.3759 103.992 15.3373 104.119 15.2599C104.246 15.1696 104.31 14.9632 104.31 14.6408C104.31 14.3313 104.225 14.1314 104.055 14.0411C103.886 13.9508 103.597 13.9057 103.187 13.9057C102.778 13.8928 102.467 13.9314 102.255 14.0217C102.044 14.112 101.895 14.3119 101.811 14.6215C101.74 14.9181 101.705 15.3888 101.705 16.0337C101.705 16.627 101.747 17.0913 101.832 17.4266C101.931 17.7619 102.114 18.0005 102.382 18.1424C102.651 18.2843 103.046 18.3552 103.568 18.3552C103.992 18.3552 104.585 18.3423 105.347 18.3165C106.124 18.2907 106.964 18.2327 107.867 18.1424L108.27 20.58C107.775 20.8122 107.246 20.9927 106.681 21.1217C106.117 21.2507 105.531 21.341 104.924 21.3925C104.331 21.4441 103.717 21.4699 103.081 21.4699C101.613 21.4699 100.434 21.2829 99.5448 20.9089C98.6553 20.5349 98.013 19.9803 97.6177 19.2451C97.2365 18.4971 97.0459 17.5749 97.0459 16.4787C97.0459 15.2018 97.2435 14.1894 97.6388 13.4413C98.0341 12.6804 98.6695 12.1323 99.5448 11.7969C100.434 11.4616 101.606 11.2939 103.06 11.2939Z" fill="black"/>
<path d="M91.4076 11.5648L91.9582 13.5381L92.3817 13.7702V21.2378H87.9346V11.5648H91.4076ZM96.5535 11.2939L96.1723 15.0084H95.05C94.6688 15.0084 94.2382 15.0277 93.7582 15.0664C93.2923 15.0922 92.6782 15.1631 91.9158 15.2792L91.6617 13.0931C92.3535 12.4869 93.0664 12.0355 93.8005 11.7389C94.5347 11.4423 95.2476 11.2939 95.9394 11.2939H96.5535Z" fill="black"/>
<path d="M84.1973 9.03125V17.7176C84.1973 17.9626 84.2679 18.1432 84.4091 18.2593C84.5503 18.3625 84.7832 18.414 85.1079 18.414H86.2303L86.7174 21.0064C86.4209 21.1225 86.0538 21.2128 85.6162 21.2772C85.1785 21.3546 84.7338 21.4127 84.282 21.4514C83.8444 21.4901 83.4562 21.5094 83.1173 21.5094C82.0867 21.5094 81.2679 21.2708 80.6608 20.7936C80.0538 20.3164 79.7502 19.6522 79.7502 18.801L79.729 9.03125H84.1973ZM86.7597 11.5656V14.0032H77.9502V11.6623L79.9832 11.5656H86.7597Z" fill="black"/>
<path d="M71.455 11.2939C72.0197 11.2939 72.6338 11.3133 73.2974 11.352C73.975 11.3907 74.6315 11.4423 75.2668 11.5068C75.9021 11.5583 76.4386 11.6293 76.8763 11.7196L76.601 14.0798C75.8951 14.0798 75.1821 14.0798 74.4621 14.0798C73.7562 14.0798 73.0786 14.0798 72.4291 14.0798C71.9632 14.0798 71.6174 14.0862 71.3915 14.0991C71.1656 14.0991 71.0173 14.112 70.9468 14.1378C70.8762 14.1636 70.8409 14.2216 70.8409 14.3119C70.8409 14.4151 70.9185 14.486 71.0738 14.5247C71.2432 14.5634 71.5821 14.6472 72.0903 14.7762L74.5256 15.3373C75.4715 15.5823 76.1704 15.9241 76.6221 16.3626C77.088 16.7882 77.321 17.4202 77.321 18.2585C77.321 19.071 77.1516 19.7094 76.8127 20.1737C76.4739 20.6381 75.9233 20.9669 75.1609 21.1604C74.4127 21.3539 73.4244 21.4506 72.1962 21.4506C71.6879 21.4506 70.9326 21.4248 69.9303 21.3732C68.942 21.3345 67.862 21.2249 66.6902 21.0443L66.9655 18.6841C67.1491 18.6841 67.4385 18.6841 67.8338 18.6841C68.2432 18.6841 68.702 18.6841 69.2103 18.6841C69.7326 18.6841 70.2409 18.6841 70.735 18.6841C71.4126 18.6841 71.9138 18.6841 72.2385 18.6841C72.5633 18.6712 72.775 18.6454 72.8738 18.6067C72.9727 18.5551 73.0221 18.4842 73.0221 18.3939C73.0221 18.2778 72.9303 18.2005 72.7468 18.1618C72.5633 18.1102 72.1962 18.0134 71.6456 17.8716L69.3161 17.2912C68.5397 17.0848 67.9538 16.8333 67.5585 16.5367C67.1632 16.2272 66.8949 15.8725 66.7538 15.4727C66.6126 15.0729 66.542 14.6215 66.542 14.1185C66.542 13.5252 66.6902 13.0222 66.9867 12.6095C67.2973 12.1839 67.8055 11.8614 68.5114 11.6422C69.2314 11.41 70.2126 11.2939 71.455 11.2939Z" fill="black"/>
<path d="M65.0438 11.565V21.238H60.6179V11.565H65.0438ZM63.7732 7.13477C64.6344 7.13477 65.065 7.53458 65.065 8.33422V9.32086C65.065 10.1205 64.6344 10.5203 63.7732 10.5203H61.8885C61.0273 10.5203 60.5967 10.1205 60.5967 9.32086V8.33422C60.5967 7.53458 61.0273 7.13477 61.8885 7.13477H63.7732Z" fill="black"/>
<path d="M52.1221 7.69629C53.3786 7.69629 54.4375 7.80592 55.2987 8.02517C56.174 8.23153 56.8799 8.59265 57.4163 9.10855C57.9528 9.61154 58.3411 10.308 58.5811 11.1979C58.8211 12.0878 58.9411 13.2099 58.9411 14.5641C58.9411 15.9183 58.8211 17.0404 58.5811 17.9303C58.3411 18.8202 57.9528 19.5231 57.4163 20.039C56.8799 20.542 56.174 20.9031 55.2987 21.1224C54.4375 21.3288 53.3786 21.4319 52.1221 21.4319C50.908 21.4319 49.7927 21.4126 48.7762 21.3739C47.7597 21.3352 46.7927 21.2901 45.875 21.2385L47.7386 18.2592C48.2327 18.3108 48.8539 18.3495 49.6021 18.3753C50.3645 18.3882 51.2045 18.3946 52.1221 18.3946C52.6445 18.3946 53.0469 18.2914 53.3292 18.0851C53.6116 17.8787 53.8092 17.4983 53.9222 16.9437C54.0351 16.3891 54.0916 15.5959 54.0916 14.5641C54.0916 13.5323 54.0351 12.7391 53.9222 12.1846C53.8092 11.63 53.6116 11.2495 53.3292 11.0431C53.0469 10.8368 52.6445 10.7336 52.1221 10.7336C51.261 10.7336 50.4986 10.7336 49.8351 10.7336C49.1856 10.7336 48.5503 10.7272 47.9291 10.7143L45.875 7.88975C46.8068 7.83816 47.7668 7.79302 48.755 7.75433C49.7574 7.71564 50.8798 7.69629 52.1221 7.69629ZM50.4704 7.88975V21.2385H45.875V7.88975H50.4704Z" fill="black"/>
<path d="M0 0H9.20466V38.3072L0 29.6775V0Z" fill="#00843D"/>
<path d="M0 0H28.6495L37.8414 7.47457H9.20216L0 0Z" fill="black"/>
<path d="M9.20508 7.47461H37.8418V38.3072L24.1468 50L9.20508 38.3072V7.47461Z" fill="#0FC764"/>
</svg>
