<svg width="16" height="16" viewBox="0 0 16 16" fill="none" xmlns="http://www.w3.org/2000/svg">
<path d="M6.65333 0.999856H9.53333V1.90652H6.65333V0.999856ZM14.28 13.7999C14.28 13.9065 14.2267 14.0132 14.12 14.1199C14.0133 14.2265 13.9067 14.2799 13.8 14.2799H11.88V15.1865H13.8C14.1911 15.1865 14.52 15.0532 14.7867 14.7865C15.0533 14.5199 15.1867 14.191 15.1867 13.7999V11.8799H14.28V13.7999ZM13.8 0.999856H11.88V1.90652H13.8C13.9067 1.90652 14.0133 1.95986 14.12 2.06652C14.2267 2.17319 14.28 2.27986 14.28 2.38652V4.30652H15.1867V2.38652C15.1867 1.99541 15.0533 1.66652 14.7867 1.39986C14.52 1.13319 14.1911 0.999856 13.8 0.999856ZM1.90667 2.38652C1.90667 2.27986 1.96 2.17319 2.06667 2.06652C2.17333 1.95986 2.28 1.90652 2.38667 1.90652H4.30667V0.999856H2.38667C1.99556 0.999856 1.66667 1.13319 1.4 1.39986C1.13333 1.66652 1 1.99541 1 2.38652V4.30652H1.90667V2.38652ZM14.28 6.65319H15.1867V9.53319H14.28V6.65319ZM11.88 7.61319V4.78652C11.88 4.6443 11.8356 4.52875 11.7467 4.43986C11.6578 4.35097 11.5422 4.30652 11.4 4.30652H8.57333V5.26652H10.28L7.77333 7.77319C7.56 7.66652 7.34667 7.61319 7.13333 7.61319H2.38667C2.24444 7.61319 2.08444 7.64875 1.90667 7.71986V6.65319H1V13.7999C1 14.191 1.13333 14.5199 1.4 14.7865C1.66667 15.0532 1.99556 15.1865 2.38667 15.1865H9.53333V14.2799H8.46667C8.53778 14.1021 8.57333 13.9421 8.57333 13.7999V9.05319C8.57333 8.83986 8.52 8.62652 8.41333 8.41319L10.92 5.90652V7.61319H11.88ZM2.38667 14.2799C2.28 14.2799 2.17333 14.2265 2.06667 14.1199C1.96 14.0132 1.90667 13.9065 1.90667 13.7999V9.05319C1.90667 8.91097 1.96 8.79541 2.06667 8.70652C2.17333 8.61763 2.28 8.57319 2.38667 8.57319H7.13333C7.27556 8.57319 7.39111 8.61763 7.48 8.70652C7.56889 8.79541 7.61333 8.91097 7.61333 9.05319V13.7999C7.61333 13.9065 7.56889 14.0132 7.48 14.1199C7.39111 14.2265 7.27556 14.2799 7.13333 14.2799H2.38667Z" fill="#181A20"/>
</svg>
